<?xml version="1.0" encoding="UTF-8"?>
<svg id="Lager_1" data-name="Lager 1" xmlns="http://www.w3.org/2000/svg" version="1.1" viewBox="0 0 140 32">
  <defs>
    <style>
      .cls-1 {
        fill: #000;
        opacity: .75;
        stroke-width: 0px;
      }
    </style>
  </defs>
  <path class="cls-1" d="M43.7,9.36c-2.4,2.77-5.03,5.31-7.64,7.89-3.87,2.81-6.31,8.4-7.52,11.83-.5,1.43.55,2.92,2.06,2.92h15.16c.99,0,1.85-.67,2.11-1.63.05-.19.1-.37.16-.56,2.09-6.76,5.21-13.03,8.92-19.04,2.32-3.75,4.95-7.27,7.6-10.78h-14.58c-.11.24-.21.48-.33.72-1.52,3.19-3.65,5.99-5.95,8.65Z"/>
  <path class="cls-1" d="M97.62,30.73c.13-.28.26-.57.38-.85,1.37-3.35,2.72-6.72,4.07-10.08,1.21-2.99,2.34-6.02,3.66-8.96.75-1.67,1.78-3.22,2.71-4.81,1.16-1.98,2.25-4,3.28-6.03h-15.66c-.51.85-1.02,1.7-1.53,2.56-2.13,3.6-4.16,7.27-5.56,11.23-.81,2.28-1.45,4.62-2.13,6.95-.65,2.24-1.93,5.8-2.86,8.33-.53,1.43.53,2.94,2.05,2.94h9.6c.85,0,1.63-.5,1.99-1.27Z"/>
  <path class="cls-1" d="M118.14,8.38c-.94,1.75-2.01,3.44-2.99,5.17-2.23,3.92-4.02,8.04-5.67,12.23-.42,1.07-.85,2.15-1.27,3.22-.56,1.44.49,2.99,2.04,2.99h11.78c.84,0,1.61-.49,1.98-1.25.51-1.06,1.01-2.13,1.51-3.2,1.58-3.44,3.37-6.77,5.22-10.07,1.33-2.37,2.1-4.94,2.69-7.58.73-3.27,1.15-6.58,1.51-9.9h-13.36c-.93,2.88-1.99,5.71-3.42,8.38Z"/>
  <path class="cls-1" d="M64.51,15.09c-1.36,3.7-2.56,7.47-3.83,11.21-.32.94-.63,1.89-.94,2.83-.47,1.42.59,2.87,2.08,2.87h11.22c1.01,0,1.88-.69,2.12-1.66.52-2.09,1.41-5.67,1.93-7.77.92-3.72,1.88-7.43,3.2-11.04,1.06-2.9,2.26-5.74,4.09-8.24.79-1.08,1.54-2.18,2.27-3.29h-13.65c-.47.65-.95,1.29-1.41,1.94-2.89,4.09-5.34,8.44-7.08,13.14Z"/>
  <path class="cls-1" d="M31.75,12.47c-.31.69-.52,1.42-.73,2.14-.08.29-.13.65.19.86.31.2.61.03.89-.11.78-.4,1.39-1.01,1.97-1.65,2.75-3.04,4.74-6.68,5.84-10.63.29-1.02.54-2.05.81-3.08h-6.18c-.03.79-.08,1.58-.16,2.37-.35,3.5-1.18,6.88-2.63,10.1Z"/>
  <path class="cls-1" d="M14.05,15.95c.41,3.85.49,7.7.24,11.56-.03.54-.1,1.33-.18,2.09-.13,1.29.89,2.4,2.18,2.4h3.35c1.03,0,1.93-.72,2.14-1.73.12-.58.25-1.17.37-1.76.87-4.17,1.73-8.33,2.16-12.57.49-4.77.28-9.5-.55-14.22-.1-.58-.23-1.15-.34-1.72h-13.84c.44,1.17.88,2.35,1.32,3.52,1.53,4.03,2.69,8.14,3.15,12.43Z"/>
  <path class="cls-1" d="M3.65,32c1.12,0,2.05-.84,2.17-1.95.29-2.66.76-7.42.79-10.13.07-6.27-.7-12.44-2.16-18.53-.11-.47-.24-.94-.38-1.4H0v32h3.65Z"/>
  <path class="cls-1" d="M139.17,13.86c-.52,3.78-1.3,7.51-2.44,11.15-.43,1.37-.89,2.74-1.35,4.1-.48,1.42.57,2.89,2.07,2.89h2.55V0h-.25s0,.02,0,.03c.12,4.62.05,9.23-.58,13.82Z"/>
</svg>